<svg width="249" height="236" viewBox="0 0 249 236" fill="none" xmlns="http://www.w3.org/2000/svg">
<g opacity="0.1">
<path d="M22.2999 193.63C16.3299 193.63 11.4799 198.47 11.4799 204.45C11.4799 198.48 6.63991 193.63 0.659912 193.63C6.62991 193.63 11.4799 188.79 11.4799 182.81C11.4799 188.78 16.3199 193.63 22.2999 193.63Z" fill="#4E47DB"/>
<path d="M248.2 12.73C241.43 12.73 235.93 18.22 235.93 25C235.93 18.23 230.44 12.73 223.66 12.73C230.43 12.73 235.93 7.23996 235.93 0.459961C235.93 7.22996 241.42 12.73 248.2 12.73Z" fill="#4E47DB"/>
<path d="M63.5198 214.54C51.7898 214.54 42.2798 224.05 42.2798 235.78C42.2798 224.05 32.7698 214.54 21.0398 214.54C32.7698 214.54 42.2798 205.03 42.2798 193.3C42.2798 205.03 51.7898 214.54 63.5198 214.54Z" fill="#4E47DB"/>
</g>
<path d="M39.62 98.61H72.82C80.16 98.61 86.46 103.85 87.81 111.07L88.5 114.8C94.03 109.65 100.68 105.69 108.05 103.35V50.82C106.79 55.57 102.45 59.1 97.31 59.1H88.49L79.28 68.31V58.76C74.45 57.55 70.85 53.17 70.85 47.98H35.73L48.88 66.77C51.48 64.85 54.7 63.71 58.19 63.71C64.56 63.71 70.04 67.51 72.5 72.96C72.71 72.93 72.92 72.92 73.14 72.92C76.1 72.92 78.51 75.32 78.51 78.29C78.51 81.26 76.21 83.56 73.32 83.65C71.48 90.29 65.41 95.17 58.18 95.17C53.39 95.17 49.11 93.03 46.23 89.65C45.37 90.23 44.34 90.57 43.22 90.57C40.26 90.57 37.85 88.17 37.85 85.2C37.85 82.49 39.86 80.25 42.48 79.89C42.48 79.74 42.46 79.6 42.46 79.45C42.46 75.36 44.03 71.65 46.6 68.84L16 54.76V121.01L26.02 105.93C29.06 101.36 34.16 98.62 39.65 98.62H39.62V98.61Z" fill="#EBF9F6"/>
<path d="M97.2898 36.8398H81.9398C75.8198 36.8398 70.8098 41.8498 70.8098 47.9698C70.8098 53.1598 74.4198 57.5398 79.2398 58.7498V68.2999L88.4498 59.0898H97.2698C102.41 59.0898 106.75 55.5498 108.01 50.8098C108.25 49.8998 108.39 48.9599 108.39 47.9799C108.39 41.8599 103.38 36.8498 97.2598 36.8498H97.2798L97.2898 36.8398Z" fill="url(#paint0_linear_485_345)"/>
<path d="M88.49 114.79L87.8 111.06C86.47 103.84 80.17 98.5999 72.81 98.5999H39.61C34.13 98.5999 29.01 101.34 25.98 105.91L15.96 120.99V140.03H73.53C76 130.19 81.28 121.49 88.47 114.8H88.48L88.49 114.79Z" fill="#64B8A8"/>
<path d="M46.5699 68.8198C44.0099 71.6098 42.4299 75.3298 42.4299 79.4298C42.4299 79.5798 42.4499 79.7198 42.4499 79.8698C39.8399 80.2298 37.8199 82.4698 37.8199 85.1798C37.8199 88.1398 40.2199 90.5498 43.1899 90.5498C44.2999 90.5498 45.3299 90.2098 46.1999 89.6298C49.0799 93.0098 53.3599 95.1498 58.1499 95.1498C65.3699 95.1498 71.4399 90.2698 73.2899 83.6298C76.1699 83.5298 78.4799 81.1798 78.4799 78.2698C78.4799 75.3598 76.0799 72.8998 73.1099 72.8998C72.8899 72.8998 72.6799 72.9198 72.4699 72.9398C69.9999 67.4898 64.5299 63.6898 58.1599 63.6898C54.6699 63.6898 51.4599 64.8398 48.8499 66.7598L35.6999 47.9698L26.4599 34.7698C21.8999 28.2598 12.4099 27.8398 7.29988 33.9298C2.24988 39.9398 4.17988 49.1098 11.2399 52.5598L15.9799 54.7398L46.5799 68.8198H46.5699Z" fill="#64B8A8"/>
<g style="mix-blend-mode:multiply" opacity="0.25">
<path d="M101.32 139.87H64.73L93.78 100.45L106.8 108.46L106.63 138.98L101.32 139.86V139.87Z" fill="#3A3A3A"/>
</g>
<path d="M192.51 137.79C192.51 137.79 192.61 137.76 192.65 137.74H192.52C192.52 137.74 192.51 137.77 192.5 137.79H192.51Z" fill="#C7C7C7"/>
<path d="M198.52 68.2999V58.7499C193.69 57.5399 190.09 53.1599 190.09 47.9699C190.09 45.9099 190.67 43.9699 191.66 42.3099C187.01 40.8899 182.08 40.1199 176.97 40.1199C149.31 40.1199 126.9 62.5399 126.9 90.1899C126.9 97.9499 128.66 105.3 131.82 111.86C134.12 108.33 137.14 105.27 140.69 102.84L140.99 101.16C142.47 93.0199 149.56 87.0999 157.85 87.0999H190.39C194.68 87.0999 198.67 89.2599 201.01 92.8499L218.95 117.5C224.07 109.65 227.05 100.27 227.05 90.1899C227.05 78.4299 222.99 67.6299 216.21 59.0899H207.75L198.54 68.2999H198.53H198.52ZM185.53 74.2799C183.09 79.7999 177.58 83.6499 171.16 83.6499C162.48 83.6499 155.43 76.6099 155.43 67.9199C155.43 59.2299 162.47 52.1899 171.16 52.1899C178.23 52.1899 184.22 56.8699 186.2 63.2899C188.39 64.0999 189.97 66.2099 189.97 68.6799C189.97 71.3899 188.09 73.6699 185.55 74.2699H185.54L185.53 74.2799Z" fill="#FFF4F2"/>
<path d="M216.55 36.8398H201.2C197.14 36.8398 193.59 39.0398 191.64 42.3098C190.65 43.9698 190.07 45.9098 190.07 47.9698C190.07 53.1598 193.68 57.5398 198.5 58.7498V68.2999L207.71 59.0898H216.53C221.67 59.0898 226.01 55.5498 227.27 50.8098C227.51 49.8998 227.65 48.9599 227.65 47.9799C227.65 41.8599 222.64 36.8498 216.53 36.8498H216.54L216.55 36.8398Z" fill="url(#paint1_linear_485_345)"/>
<path d="M171.15 83.6399C177.57 83.6399 183.08 79.7799 185.52 74.2699C188.05 73.6699 189.94 71.3899 189.94 68.6799C189.94 66.2099 188.37 64.0999 186.17 63.2899C184.2 56.8599 178.22 52.1899 171.13 52.1899C162.45 52.1899 155.4 59.2299 155.4 67.9199C155.4 76.6099 162.44 83.6499 171.13 83.6499H171.14L171.15 83.6399Z" fill="#FDBAB1"/>
<path d="M201 92.8499C198.66 89.2599 194.66 87.0999 190.38 87.0999H157.84C149.57 87.0999 142.46 93.0199 140.98 101.16L140.68 102.84C137.13 105.27 134.11 108.33 131.81 111.85C139.88 128.66 157.07 140.26 176.97 140.26C182.4 140.26 187.63 139.39 192.53 137.79C192.53 137.77 192.53 137.76 192.55 137.74H192.68C197.77 136.06 202.51 133.59 206.72 130.47C211.53 126.91 215.67 122.52 218.94 117.5L201 92.8499Z" fill="#FDBAB1"/>
<g style="mix-blend-mode:multiply" opacity="0.25">
<path d="M169.9 124.49C172.69 122.47 166.89 121.17 166.89 117.48C166.89 111.36 172.01 115.48 165.89 115.48L159.37 107.23L151.87 101.46C143.04 101.46 137.67 102.46 128.83 102.46C128.83 103.34 128.35 101.42 128.71 101.89C132.49 106.78 136.13 111.2 139.57 115.15C139.26 116.16 139.09 117.23 139.09 118.35C139.09 123.54 142.7 127.92 147.52 129.13V138.68L155.02 131.18C158.92 134.72 162.02 137.05 164.04 138.12C168.57 140.52 171.89 139.53 171.89 139.53C174.89 139.7 173.89 140.53 179.94 139.89C177.31 135.71 172.52 128.68 169.88 124.5H169.89L169.9 124.49Z" fill="#3A3A3A"/>
</g>
<path d="M98.1499 162.21C98.8099 162.09 99.4699 162.01 100.15 162.01H138.42C144.18 162.01 149.11 166.13 150.14 171.79L152.68 185.79L155.07 198.97L182.17 152.04L152.55 100.73H93.3099L63.6899 152.04L80.3299 180.86L91.3399 166.38C93.0199 164.17 95.4599 162.71 98.1399 162.21H98.1499Z" fill="#F8F6EB"/>
<path d="M152.56 203.34L153.02 202.54C152.58 202.81 152.14 203.08 151.7 203.34H152.56Z" fill="#F5CE46"/>
<path d="M126.2 125.81C123.29 124.41 120.19 123.9 117.2 124.17C111.34 124.69 105.89 128.19 103.16 133.87C102.62 135 102.21 136.16 101.93 137.34C100.13 136.5 98.06 136.17 95.96 136.52C91.07 137.32 87.58 141.49 87.43 146.26C87.41 146.91 87.45 147.58 87.56 148.25C88.47 153.81 93.73 157.58 99.29 156.65C101.97 156.21 104.24 154.76 105.76 152.74C107.24 154.43 109.08 155.88 111.23 156.92C119.81 161.06 130.13 157.45 134.28 148.87C138.42 140.29 134.81 129.97 126.23 125.82H126.21L126.2 125.81Z" fill="#F5CE46"/>
<path d="M152.69 185.79L150.15 171.79C149.12 166.13 144.19 162.01 138.43 162.01H100.16C99.4799 162.01 98.8099 162.09 98.1599 162.21C95.4799 162.71 93.0398 164.16 91.3598 166.38L80.3499 180.86L87.7999 193.77L93.3298 203.35H151.71C152.16 203.09 152.6 202.82 153.03 202.55L155.09 198.97L152.7 185.79H152.69Z" fill="#F5CE46"/>
<path d="M162.91 107.22H147.56C144.35 107.22 141.46 108.6 139.43 110.8C137.59 112.78 136.43 115.44 136.43 118.35C136.43 123.54 140.04 127.92 144.86 129.13V138.68L154.07 129.47H162.89C169.01 129.47 174.02 124.46 174.02 118.35C174.02 112.24 169.01 107.22 162.89 107.22H162.9H162.91Z" fill="url(#paint2_linear_485_345)"/>
<path d="M170.9 98.95C171.18 98.95 171.4 98.73 171.4 98.45C171.4 98.17 171.18 97.95 170.9 97.95C170.62 97.95 170.4 98.17 170.4 98.45C170.4 98.73 170.62 98.95 170.9 98.95Z" stroke="#272266" stroke-width="1.79" stroke-miterlimit="10" stroke-linecap="round"/>
<path d="M170.9 104.96C171.18 104.96 171.4 104.74 171.4 104.46C171.4 104.18 171.18 103.96 170.9 103.96C170.62 103.96 170.4 104.18 170.4 104.46C170.4 104.74 170.62 104.96 170.9 104.96Z" stroke="#272266" stroke-width="1.79" stroke-miterlimit="10" stroke-linecap="round"/>
<path d="M35.5599 120.81L33.9199 136.48" stroke="#28226A" stroke-miterlimit="10" stroke-linecap="round"/>
<path d="M97.7599 185.65L97.7 200.5" stroke="#28226A" stroke-miterlimit="10" stroke-linecap="round"/>
<path d="M197.14 131.5L193.7 112.5" stroke="#28226A" stroke-miterlimit="10" stroke-linecap="round"/>
<defs>
<linearGradient id="paint0_linear_485_345" x1="111.78" y1="18.8498" x2="77.2198" y2="64.2298" gradientUnits="userSpaceOnUse">
<stop stop-color="#342AAB"/>
<stop offset="0.19" stop-color="#2E22C6"/>
<stop offset="0.47" stop-color="#573CF2"/>
<stop offset="0.7" stop-color="#7A45F3"/>
<stop offset="0.9" stop-color="#8050F3"/>
</linearGradient>
<linearGradient id="paint1_linear_485_345" x1="226.65" y1="25.1998" x2="197.25" y2="62.8498" gradientUnits="userSpaceOnUse">
<stop stop-color="#342AAB"/>
<stop offset="0.19" stop-color="#2E22C6"/>
<stop offset="0.47" stop-color="#573CF2"/>
<stop offset="0.7" stop-color="#7A45F3"/>
<stop offset="0.9" stop-color="#8050F3"/>
</linearGradient>
<linearGradient id="paint2_linear_485_345" x1="176.52" y1="97.07" x2="142.49" y2="131.1" gradientUnits="userSpaceOnUse">
<stop stop-color="#342AAB"/>
<stop offset="0.19" stop-color="#2E22C6"/>
<stop offset="0.47" stop-color="#573CF2"/>
<stop offset="0.7" stop-color="#7A45F3"/>
<stop offset="0.9" stop-color="#8050F3"/>
</linearGradient>
</defs>
</svg>
