<svg width="356" height="382" viewBox="0 0 356 382" fill="none" xmlns="http://www.w3.org/2000/svg">
<g clip-path="url(#clip0_6657_4640)">
<path d="M298.819 311.02C298.819 315.605 295.806 320.189 289.78 323.66L198.611 376.253C186.56 383.196 166.78 383.196 154.729 376.253L63.5598 323.66C57.5343 320.189 54.5215 315.605 54.5215 311.02V268.055C54.7835 266.352 55.5694 264.584 56.7483 262.815C58.2547 264.977 60.547 267.073 63.6253 268.841L154.795 321.434C166.846 328.376 186.625 328.376 198.676 321.434L289.846 268.841C292.924 267.073 295.216 265.042 296.657 262.815C298.033 264.78 298.753 266.942 298.819 269.037V311.02Z" fill="url(#paint0_linear_6657_4640)"/>
<path d="M298.753 291.175C298.426 295.497 295.478 299.755 289.78 303.029L198.611 355.622C186.56 362.564 166.78 362.564 154.729 355.622L63.5598 303.029C57.5343 299.558 54.5215 294.973 54.5215 290.389V291.699C54.5215 296.283 57.5343 300.868 63.5598 304.339L154.729 356.932C166.78 363.874 186.56 363.874 198.611 356.932L289.78 304.339C295.806 300.868 298.819 296.283 298.819 291.699V291.175H298.753Z" fill="url(#paint1_linear_6657_4640)"/>
<path opacity="0.1" d="M117.135 334.402C117.135 338.79 114.057 340.558 110.258 338.397C106.459 336.17 103.381 330.865 103.381 326.477C103.381 322.088 106.459 320.32 110.258 322.481C114.057 324.708 117.135 330.013 117.135 334.402Z" fill="#8D94FF"/>
<path opacity="0.2" d="M115.563 333.55C115.563 336.956 113.139 338.331 110.192 336.628C107.245 334.926 104.821 330.799 104.821 327.394C104.821 323.988 107.245 322.613 110.192 324.315C113.139 326.018 115.563 330.144 115.563 333.55Z" fill="#8D94FF"/>
<path opacity="0.2" d="M114.384 332.829C114.384 335.449 112.55 336.562 110.258 335.253C107.966 333.943 106.132 330.733 106.132 328.048C106.132 325.363 107.966 324.315 110.258 325.625C112.55 326.935 114.384 330.144 114.384 332.829Z" fill="#8D94FF"/>
<path d="M113.205 332.174C113.205 334.074 111.895 334.794 110.258 333.877C108.62 332.96 107.311 330.668 107.311 328.769C107.311 326.869 108.62 326.149 110.258 327.066C111.895 327.983 113.205 330.275 113.205 332.174Z" fill="white"/>
<path opacity="0.1" d="M142.547 348.68C142.547 353.068 139.469 354.836 135.67 352.675C131.871 350.448 128.793 345.143 128.793 340.755C128.793 336.367 131.871 334.598 135.67 336.76C139.469 338.987 142.547 344.292 142.547 348.68Z" fill="#8D94FF"/>
<path opacity="0.2" d="M140.975 347.829C140.975 351.234 138.551 352.61 135.604 350.907C132.657 349.204 130.233 345.078 130.233 341.672C130.233 338.266 132.657 336.891 135.604 338.594C138.551 340.297 140.975 344.423 140.975 347.829Z" fill="#8D94FF"/>
<path opacity="0.2" d="M139.796 347.108C139.796 349.727 137.962 350.841 135.67 349.531C133.378 348.221 131.544 345.012 131.544 342.326C131.544 339.641 133.378 338.593 135.67 339.903C137.962 341.213 139.796 344.422 139.796 347.108Z" fill="#8D94FF"/>
<path d="M138.552 346.387C138.552 348.287 137.242 349.007 135.605 348.09C133.967 347.173 132.657 344.881 132.657 342.982C132.657 341.082 133.967 340.362 135.605 341.279C137.242 342.196 138.552 344.488 138.552 346.387Z" fill="white"/>
<path opacity="0.1" d="M91.6573 319.796C91.6573 324.184 88.579 325.953 84.7803 323.791C80.9816 321.564 77.9033 316.259 77.9033 311.871C77.9033 307.483 80.9816 305.715 84.7803 307.876C88.579 310.103 91.6573 315.408 91.6573 319.796Z" fill="#8D94FF"/>
<path opacity="0.2" d="M90.1514 318.879C90.1514 322.285 87.7281 323.66 84.7808 321.958C81.8335 320.255 79.4102 316.129 79.4102 312.723C79.4102 309.317 81.8335 307.942 84.7808 309.644C87.7281 311.347 90.1514 315.474 90.1514 318.879Z" fill="#8D94FF"/>
<path opacity="0.2" d="M88.9067 318.224C88.9067 320.844 87.0728 321.957 84.7805 320.647C82.4882 319.337 80.6543 316.128 80.6543 313.443C80.6543 310.757 82.4882 309.709 84.7805 311.019C87.0728 312.329 88.9067 315.539 88.9067 318.224Z" fill="#8D94FF"/>
<path d="M87.7276 317.503C87.7276 319.403 86.4177 320.123 84.7803 319.206C83.1429 318.289 81.833 315.997 81.833 314.098C81.833 312.198 83.1429 311.478 84.7803 312.395C86.4177 313.312 87.7276 315.604 87.7276 317.503Z" fill="white"/>
<path opacity="0.1" d="M219.766 336.301C223.564 334.074 226.643 335.908 226.643 340.296C226.643 344.685 223.564 350.055 219.766 352.216C215.967 354.443 212.889 352.609 212.889 348.221C212.889 343.833 215.967 338.462 219.766 336.301Z" fill="#8D94FF"/>
<path opacity="0.2" d="M219.766 338.135C222.713 336.432 225.137 337.807 225.137 341.213C225.137 344.619 222.713 348.745 219.766 350.448C216.819 352.151 214.396 350.775 214.396 347.37C214.396 343.964 216.819 339.838 219.766 338.135Z" fill="#8D94FF"/>
<path opacity="0.2" d="M219.766 339.445C222.058 338.135 223.892 339.183 223.892 341.868C223.892 344.488 222.058 347.763 219.766 349.073C217.474 350.383 215.64 349.335 215.64 346.65C215.64 344.03 217.474 340.755 219.766 339.445Z" fill="#8D94FF"/>
<path d="M219.766 340.886C221.403 339.969 222.713 340.69 222.713 342.589C222.713 344.488 221.403 346.715 219.766 347.698C218.128 348.614 216.818 347.894 216.818 345.995C216.818 344.095 218.128 341.868 219.766 340.886Z" fill="white"/>
<path opacity="0.1" d="M245.178 322.088C248.977 319.861 252.055 321.695 252.055 326.083C252.055 330.472 248.977 335.842 245.178 338.004C241.379 340.23 238.301 338.397 238.301 334.008C238.301 329.62 241.379 324.25 245.178 322.088Z" fill="#8D94FF"/>
<path opacity="0.2" d="M245.178 323.856C248.125 322.154 250.549 323.529 250.549 326.935C250.549 330.34 248.125 334.467 245.178 336.169C242.231 337.872 239.808 336.497 239.808 333.091C239.808 329.685 242.231 325.559 245.178 323.856Z" fill="#8D94FF"/>
<path opacity="0.2" d="M245.178 325.232C247.47 323.922 249.304 324.97 249.304 327.656C249.304 330.275 247.47 333.55 245.178 334.86C242.886 336.17 241.052 335.122 241.052 332.437C241.052 329.817 242.886 326.542 245.178 325.232Z" fill="#8D94FF"/>
<path d="M245.178 326.608C246.815 325.691 248.125 326.411 248.125 328.311C248.125 330.21 246.815 332.437 245.178 333.419C243.54 334.336 242.23 333.616 242.23 331.716C242.23 329.817 243.54 327.59 245.178 326.608Z" fill="white"/>
<path opacity="0.1" d="M270.655 307.417C274.454 305.191 277.532 307.024 277.532 311.413C277.532 315.801 274.454 321.171 270.655 323.333C266.857 325.56 263.778 323.726 263.778 319.337C263.778 314.949 266.857 309.579 270.655 307.417Z" fill="#8D94FF"/>
<path opacity="0.2" d="M270.656 309.185C273.603 307.483 276.026 308.858 276.026 312.264C276.026 315.67 273.603 319.796 270.656 321.499C267.708 323.201 265.285 321.826 265.285 318.42C265.285 315.015 267.708 310.888 270.656 309.185Z" fill="#8D94FF"/>
<path opacity="0.2" d="M270.655 310.561C272.948 309.251 274.782 310.299 274.782 312.985C274.782 315.604 272.948 318.879 270.655 320.189C268.363 321.499 266.529 320.451 266.529 317.766C266.529 315.146 268.363 311.871 270.655 310.561Z" fill="#8D94FF"/>
<path d="M270.655 311.937C272.293 311.02 273.603 311.74 273.603 313.64C273.603 315.539 272.293 317.766 270.655 318.748C269.018 319.665 267.708 318.945 267.708 317.045C267.708 315.146 269.018 312.919 270.655 311.937Z" fill="white"/>
<path d="M298.753 269.037V269.889C298.557 274.343 295.544 278.731 289.715 282.071L198.545 334.664C186.494 341.606 166.715 341.606 154.664 334.664L63.4943 282.071C58.2547 279.058 55.1764 275.456 54.456 271.526C54.2595 270.347 54.2595 269.168 54.456 267.99C54.7179 266.287 55.5039 264.518 56.6828 262.75C58.1237 260.523 60.4815 258.493 63.5598 256.724L154.729 204.132C166.78 197.189 186.56 197.189 198.611 204.132L289.78 256.724C292.859 258.493 295.085 260.523 296.592 262.75C297.967 264.715 298.688 266.876 298.753 268.972V269.037Z" fill="url(#paint2_linear_6657_4640)"/>
<path d="M132.462 135.819L86.877 150.359L89.3003 157.891L134.885 143.351L132.462 135.819Z" fill="url(#paint3_radial_6657_4640)"/>
<path d="M157.218 137.654C157.218 145.906 150.538 152.587 142.285 152.587C134.033 152.587 127.353 145.906 127.353 137.654C127.353 129.401 134.033 122.721 142.285 122.721C150.538 122.721 157.218 129.401 157.218 137.654Z" fill="url(#paint4_radial_6657_4640)"/>
<path d="M157.218 137.654C157.218 145.906 150.538 152.587 142.285 152.587C134.033 152.587 127.353 145.906 127.353 137.654C127.353 129.401 134.033 122.721 142.285 122.721C150.538 122.721 157.218 129.401 157.218 137.654Z" fill="url(#paint5_radial_6657_4640)"/>
<path d="M181.059 240.874C181.059 240.874 187.019 240.743 192.848 237.73C198.677 234.717 206.013 225.089 211.842 215.92C228.216 190.115 229.198 167.257 223.434 151.866C217.671 136.474 201.886 128.025 180.993 128.025C160.101 128.025 144.316 136.409 138.553 151.866C132.789 167.257 133.837 190.115 150.145 215.92C155.974 225.089 163.31 234.717 169.139 237.73C174.968 240.743 180.928 240.874 180.928 240.874H181.059Z" fill="url(#paint6_radial_6657_4640)"/>
<path d="M159.903 134.772C159.903 142.304 154.664 151.408 148.114 155.141C141.63 158.874 136.325 155.862 136.325 148.33C136.325 140.798 141.565 131.694 148.114 127.961C154.598 124.227 159.903 127.24 159.903 134.772Z" fill="url(#paint7_linear_6657_4640)"/>
<path d="M181.059 240.874C181.059 240.874 187.019 240.743 192.848 237.73C198.677 234.717 206.013 225.089 211.842 215.92C228.216 190.115 229.198 167.257 223.434 151.866C217.671 136.474 201.886 128.025 180.993 128.025C160.101 128.025 144.316 136.409 138.553 151.866C132.789 167.257 133.837 190.115 150.145 215.92C155.974 225.089 163.31 234.717 169.139 237.73C174.968 240.743 180.928 240.874 180.928 240.874H181.059Z" fill="url(#paint8_radial_6657_4640)"/>
<path d="M217.212 141.452C209.352 132.741 196.646 128.091 181.124 128.091C165.601 128.091 155.188 131.955 147.263 139.291C156.236 149.049 169.073 155.14 183.351 155.14C197.629 155.14 208.435 149.966 217.212 141.517V141.452Z" fill="#B8B8F1"/>
<path d="M98.4692 161.756C91.2648 165.882 63.2983 175.314 56.0938 171.187C48.8893 167.061 65.1977 150.884 72.4021 146.758C79.6066 142.632 91.2648 142.632 98.4692 146.758C105.674 150.884 105.674 157.63 98.4692 161.822V161.756Z" fill="url(#paint9_radial_6657_4640)"/>
<path d="M223.565 155.272C223.565 162.804 218.325 171.908 211.775 175.641C205.291 179.374 199.986 176.362 199.986 168.83C199.986 161.298 205.226 152.194 211.775 148.461C218.259 144.727 223.565 147.74 223.565 155.272Z" fill="url(#paint10_linear_6657_4640)"/>
<path d="M229.067 176.23L221.731 179.309L237.712 217.492L245.048 214.414L229.067 176.23Z" fill="url(#paint11_linear_6657_4640)"/>
<path d="M251.335 215.593C251.335 223.91 245.506 252.794 238.301 256.986C231.097 261.112 225.268 238.974 225.268 230.656C225.268 222.339 231.097 212.252 238.301 208.126C245.506 204 251.335 207.34 251.335 215.658V215.593Z" fill="url(#paint12_radial_6657_4640)"/>
<path d="M237.057 168.699C237.057 176.951 230.377 183.631 222.124 183.631C213.872 183.631 207.191 176.951 207.191 168.699C207.191 160.446 213.872 153.766 222.124 153.766C230.377 153.766 237.057 160.446 237.057 168.699Z" fill="url(#paint13_radial_6657_4640)"/>
<path d="M237.057 168.699C237.057 176.951 230.377 183.631 222.124 183.631C213.872 183.631 207.191 176.951 207.191 168.699C207.191 160.446 213.872 153.766 222.124 153.766C230.377 153.766 237.057 160.446 237.057 168.699Z" fill="url(#paint14_radial_6657_4640)"/>
<path d="M232.276 88.7941C232.276 115.844 210.335 137.719 183.285 137.719C156.236 137.719 134.295 115.778 134.295 88.7941C134.295 61.81 156.236 39.8691 183.285 39.8691C210.335 39.8691 232.276 61.7445 232.276 88.7941Z" fill="url(#paint15_radial_6657_4640)"/>
<path d="M232.276 88.7941C232.276 115.844 210.335 137.719 183.285 137.719C156.236 137.719 134.295 115.778 134.295 88.7941C134.295 61.81 156.236 39.8691 183.285 39.8691C210.335 39.8691 232.276 61.7445 232.276 88.7941Z" fill="url(#paint16_linear_6657_4640)"/>
<path d="M208.304 107.395C207.388 121.149 194.812 125.079 194.812 125.079C178.373 126.65 160.886 123.769 148.18 116.433C144.316 114.206 141.172 111.718 138.749 109.032C135.932 102.876 134.36 95.9987 134.36 88.7287C134.36 81.4587 135.277 77.922 136.98 72.9443C139.6 76.4156 143.333 79.6903 148.245 82.5066C160.951 89.8421 178.439 92.7239 194.878 91.152C194.878 91.152 209.483 90.0386 208.37 107.329L208.304 107.395Z" fill="#8B3FFF"/>
<path d="M208.304 107.395C207.388 121.149 194.812 125.079 194.812 125.079C178.373 126.65 160.886 123.769 148.18 116.433C144.316 114.206 141.172 111.718 138.749 109.032C135.932 102.876 134.36 95.9987 134.36 88.7287C134.36 81.4587 135.277 77.922 136.98 72.9443C139.6 76.4156 143.333 79.6903 148.245 82.5066C160.951 89.8421 178.439 92.7239 194.878 91.152C194.878 91.152 209.483 90.0386 208.37 107.329L208.304 107.395Z" fill="#170835"/>
<path opacity="0.1" d="M148.18 82.5721C143.268 79.7558 139.535 76.481 136.915 73.0098C135.212 77.9874 134.295 83.2925 134.295 88.7941C134.295 94.2957 135.867 102.876 138.683 109.098C141.106 111.783 144.25 114.272 148.114 116.499C149.817 117.481 151.651 118.398 153.485 119.184C153.878 111.128 155.581 98.8149 161.868 88.3357C156.891 86.8948 152.241 84.9954 148.114 82.5721H148.18Z" fill="white"/>
<path opacity="0.3" d="M172.741 109.752C172.741 113.355 170.252 114.796 167.108 112.962C164.03 111.193 161.476 106.805 161.476 103.268C161.476 99.7316 163.964 98.2252 167.108 100.059C170.186 101.827 172.741 106.15 172.741 109.752Z" fill="#6466F0"/>
<path opacity="0.3" d="M171.496 109.032C171.496 111.783 169.531 112.962 167.108 111.521C164.685 110.145 162.72 106.74 162.72 103.989C162.72 101.238 164.685 100.059 167.108 101.5C169.531 102.875 171.496 106.281 171.496 109.032Z" fill="#6466F0"/>
<path opacity="0.3" d="M170.972 108.705C170.972 111.128 169.27 112.111 167.174 110.866C165.078 109.687 163.375 106.74 163.375 104.317C163.375 101.893 165.078 100.911 167.174 102.155C169.27 103.334 170.972 106.282 170.972 108.705Z" fill="#6466F0"/>
<path d="M167.173 102.81C165.405 101.763 163.964 102.614 163.964 104.644C163.964 106.675 165.405 109.163 167.173 110.211C168.942 111.259 170.382 110.408 170.382 108.378C170.382 106.347 168.942 103.858 167.173 102.81Z" fill="url(#paint17_linear_6657_4640)"/>
<path opacity="0.3" d="M150.407 100.19C150.407 103.792 147.918 105.233 144.774 103.399C141.696 101.631 139.142 97.3083 139.142 93.7061C139.142 90.1038 141.63 88.6629 144.774 90.4968C147.852 92.2652 150.407 96.6534 150.407 100.19Z" fill="#6466F0"/>
<path opacity="0.3" d="M149.162 99.47C149.162 102.221 147.197 103.4 144.774 101.959C142.351 100.583 140.386 97.1777 140.386 94.4269C140.386 91.6761 142.351 90.5627 144.774 91.9381C147.197 93.3135 149.162 96.7192 149.162 99.47Z" fill="#6466F0"/>
<path opacity="0.3" d="M148.573 99.1424C148.573 101.566 146.87 102.548 144.774 101.304C142.678 100.125 140.976 97.1775 140.976 94.7542C140.976 92.3309 142.678 91.3484 144.774 92.5928C146.87 93.7718 148.573 96.719 148.573 99.1424Z" fill="#6466F0"/>
<path d="M144.774 93.2479C143.005 92.2 141.564 93.0514 141.564 95.0818C141.564 97.1121 143.005 99.601 144.774 100.649C146.542 101.697 147.983 100.845 147.983 98.815C147.983 96.7847 146.542 94.2959 144.774 93.2479Z" fill="url(#paint18_linear_6657_4640)"/>
<g opacity="0.3">
<path opacity="0.5" d="M300.85 114.993C369.423 154.552 369.423 218.671 300.85 258.296C232.276 297.855 121.065 297.855 52.4262 258.296C-16.1473 218.737 -16.1473 154.552 52.4262 114.993C121 75.4335 232.211 75.4335 300.85 114.993Z" fill="#A9A7F2"/>
</g>
<path opacity="0.2" d="M300.85 114.993C232.276 75.4335 121.065 75.4335 52.4262 114.993C-16.1473 154.552 -16.1473 218.671 52.4262 258.296C121 297.855 232.211 297.855 300.85 258.296C369.423 218.737 369.423 154.552 300.85 114.993ZM299.605 257.51C231.752 296.676 121.655 296.676 53.8016 257.51C-14.0514 218.344 -14.0514 154.879 53.8016 115.713C121.655 76.5469 231.752 76.5469 299.605 115.713C367.458 154.879 367.458 218.344 299.605 257.51Z" fill="#A9A7F2"/>
<path d="M232.276 88.7941C232.276 115.844 210.335 137.719 183.285 137.719C156.236 137.719 134.295 115.778 134.295 88.7941C134.295 61.81 156.236 39.8691 183.285 39.8691C210.335 39.8691 232.276 61.7445 232.276 88.7941Z" fill="url(#paint19_radial_6657_4640)"/>
<path d="M232.276 88.7941C232.276 115.844 210.335 137.719 183.285 137.719C156.236 137.719 134.295 115.778 134.295 88.7941C134.295 61.81 156.236 39.8691 183.285 39.8691C210.335 39.8691 232.276 61.7445 232.276 88.7941Z" fill="url(#paint20_linear_6657_4640)"/>
<path d="M208.304 107.395C207.388 121.149 194.812 125.079 194.812 125.079C178.373 126.65 160.886 123.769 148.18 116.433C144.316 114.206 141.172 111.718 138.749 109.032C135.932 102.876 134.36 95.9987 134.36 88.7287C134.36 81.4587 135.277 77.922 136.98 72.9443C139.6 76.4156 143.333 79.6903 148.245 82.5066C160.951 89.8421 178.439 92.7239 194.878 91.152C194.878 91.152 209.483 90.0386 208.37 107.329L208.304 107.395Z" fill="#8B3FFF"/>
<path d="M208.304 107.395C207.388 121.149 194.812 125.079 194.812 125.079C178.373 126.65 160.886 123.769 148.18 116.433C144.316 114.206 141.172 111.718 138.749 109.032C135.932 102.876 134.36 95.9987 134.36 88.7287C134.36 81.4587 135.277 77.922 136.98 72.9443C139.6 76.4156 143.333 79.6903 148.245 82.5066C160.951 89.8421 178.439 92.7239 194.878 91.152C194.878 91.152 209.483 90.0386 208.37 107.329L208.304 107.395Z" fill="url(#paint21_linear_6657_4640)"/>
<path opacity="0.1" d="M148.18 82.5721C143.268 79.7558 139.535 76.481 136.915 73.0098C135.212 77.9874 134.295 83.2925 134.295 88.7941C134.295 94.2957 135.867 102.876 138.683 109.098C141.106 111.783 144.25 114.272 148.114 116.499C149.817 117.481 151.651 118.398 153.485 119.184C153.878 111.128 155.581 98.8149 161.868 88.3357C156.891 86.8948 152.241 84.9954 148.114 82.5721H148.18Z" fill="white"/>
<path opacity="0.3" d="M172.741 109.753C172.741 113.356 170.252 114.796 167.108 112.963C164.03 111.194 161.476 106.806 161.476 103.269C161.476 99.7326 163.964 98.2262 167.108 100.06C170.186 101.828 172.741 106.151 172.741 109.753Z" fill="#6466F0"/>
<path opacity="0.3" d="M171.496 109.032C171.496 111.783 169.531 112.962 167.108 111.521C164.685 110.145 162.72 106.74 162.72 103.989C162.72 101.238 164.685 100.059 167.108 101.5C169.531 102.875 171.496 106.281 171.496 109.032Z" fill="#6466F0"/>
<path opacity="0.3" d="M170.972 108.705C170.972 111.128 169.27 112.111 167.174 110.866C165.078 109.687 163.375 106.74 163.375 104.317C163.375 101.893 165.078 100.911 167.174 102.155C169.27 103.334 170.972 106.282 170.972 108.705Z" fill="#6466F0"/>
<path d="M167.173 102.81C165.405 101.763 163.964 102.614 163.964 104.644C163.964 106.675 165.405 109.163 167.173 110.211C168.942 111.259 170.382 110.408 170.382 108.378C170.382 106.347 168.942 103.858 167.173 102.81Z" fill="url(#paint22_linear_6657_4640)"/>
<path opacity="0.3" d="M150.407 100.19C150.407 103.792 147.918 105.233 144.774 103.399C141.696 101.631 139.142 97.3083 139.142 93.7061C139.142 90.1038 141.63 88.6629 144.774 90.4968C147.852 92.2652 150.407 96.6534 150.407 100.19Z" fill="#6466F0"/>
<path opacity="0.3" d="M149.162 99.47C149.162 102.221 147.197 103.4 144.774 101.959C142.351 100.583 140.386 97.1777 140.386 94.4269C140.386 91.6761 142.351 90.5627 144.774 91.9381C147.197 93.3135 149.162 96.7192 149.162 99.47Z" fill="#6466F0"/>
<path opacity="0.3" d="M148.573 99.1424C148.573 101.566 146.87 102.548 144.774 101.304C142.678 100.125 140.976 97.1775 140.976 94.7542C140.976 92.3309 142.678 91.3484 144.774 92.5928C146.87 93.7718 148.573 96.719 148.573 99.1424Z" fill="#6466F0"/>
<path d="M144.775 93.2479C143.006 92.2 141.565 93.0514 141.565 95.0818C141.565 97.1121 143.006 99.601 144.775 100.649C146.543 101.697 147.984 100.845 147.984 98.815C147.984 96.7847 146.543 94.2959 144.775 93.2479Z" fill="url(#paint23_linear_6657_4640)"/>
<path opacity="0.7" d="M167.173 102.81C165.405 101.763 163.964 102.614 163.964 104.644C163.964 106.675 165.405 109.163 167.173 110.211C168.942 111.259 170.382 110.408 170.382 108.378C170.382 106.347 168.942 103.858 167.173 102.81Z" fill="white"/>
<path opacity="0.7" d="M144.775 93.2479C143.006 92.2 141.565 93.0514 141.565 95.0818C141.565 97.1121 143.006 99.601 144.775 100.649C146.543 101.697 147.984 100.845 147.984 98.815C147.984 96.7847 146.543 94.2959 144.775 93.2479Z" fill="white"/>
<path d="M354.883 126.323C354.883 128.026 353.508 129.402 351.805 129.402C350.102 129.402 348.727 128.026 348.727 126.323C348.727 124.621 350.102 123.245 351.805 123.245C353.508 123.245 354.883 124.621 354.883 126.323Z" fill="#9697F1"/>
<path d="M298.492 81.1317C298.492 82.1141 297.706 82.9 296.723 82.9C295.741 82.9 294.955 82.1141 294.955 81.1317C294.955 80.1492 295.741 79.3633 296.723 79.3633C297.706 79.3633 298.492 80.1492 298.492 81.1317Z" fill="#9697F1"/>
<path d="M343.356 70.5213C343.356 71.5037 342.57 72.2897 341.588 72.2897C340.605 72.2897 339.819 71.5037 339.819 70.5213C339.819 69.5389 340.605 68.7529 341.588 68.7529C342.57 68.7529 343.356 69.5389 343.356 70.5213Z" fill="#9697F1"/>
<path d="M18.9579 109.688C19.0889 111.587 17.7135 113.29 15.8141 113.421C13.9147 113.552 12.2119 112.176 12.0809 110.277C11.9499 108.378 13.3253 106.675 15.2247 106.544C17.124 106.413 18.8269 107.788 18.9579 109.688Z" fill="#9697F1"/>
<path d="M261.553 37.4461C261.618 38.4286 260.898 39.28 259.981 39.3455C258.998 39.411 258.147 38.6905 258.081 37.7736C258.016 36.7912 258.736 36.0052 259.653 35.8743C260.636 35.8088 261.422 36.5292 261.553 37.4461Z" fill="#9697F1"/>
<path d="M30.7468 25.4608C30.7468 25.9192 30.4193 26.3777 29.9609 26.3777C29.5024 26.3777 29.0439 26.0502 29.0439 25.5917C29.0439 25.1333 29.3714 24.6748 29.8299 24.6748C30.2883 24.6748 30.7468 25.0023 30.7468 25.4608Z" fill="#9697F1"/>
<path d="M103.184 40.1971C103.184 40.6555 102.857 41.114 102.398 41.114C101.94 41.114 101.481 40.7865 101.481 40.3281C101.481 39.8696 101.809 39.4111 102.267 39.4111C102.726 39.4111 103.184 39.7386 103.184 40.1971Z" fill="#9697F1"/>
<path d="M126.566 2.53697C126.632 3.51939 125.911 4.30533 124.994 4.43632C124.012 4.50182 123.226 3.78137 123.095 2.86444C123.029 1.88201 123.75 1.09607 124.667 0.965075C125.649 0.899579 126.501 1.62003 126.566 2.53697Z" fill="#9697F1"/>
<path d="M75.9383 82.5067C76.0038 83.4891 75.2833 84.3406 74.3664 84.4061C73.384 84.4716 72.5325 83.7511 72.467 82.8342C72.4015 81.8518 73.122 81.0003 74.0389 80.9348C75.0213 80.8693 75.8728 81.5898 75.9383 82.5067Z" fill="#9697F1"/>
<path d="M222.779 16.4218C222.779 16.8802 222.386 17.2732 221.928 17.2732C221.469 17.2732 221.076 16.8802 221.076 16.4218C221.076 15.9633 221.469 15.5703 221.928 15.5703C222.386 15.5703 222.779 15.9633 222.779 16.4218Z" fill="#9697F1"/>
<g opacity="0.3">
<g opacity="0.5">
<path d="M282.38 28.5384C340.736 62.203 340.736 116.826 282.38 150.491C224.024 184.155 129.383 184.155 70.9615 150.491C12.6053 116.826 12.6053 62.203 70.9615 28.5384C129.318 -5.1261 223.958 -5.1261 282.38 28.5384Z" fill="#A9A7F2" fill-opacity="0.5"/>
</g>
<path d="M282.38 28.5384C224.024 -5.1261 129.383 -5.1261 70.9615 28.5384C12.6053 62.203 12.6053 116.826 70.9615 150.491C129.318 184.155 223.958 184.155 282.38 150.491C340.736 116.826 340.736 62.203 282.38 28.5384ZM281.267 149.77C223.5 183.107 129.842 183.107 72.0749 149.77C14.3081 116.433 14.3081 62.3995 72.0749 29.1279C129.842 -4.20917 223.5 -4.20917 281.267 29.1279C339.033 62.465 339.033 116.499 281.267 149.77Z" fill="#A9A7F2"/>
</g>
<path opacity="0.5" d="M158.726 205.703V264.779C130.89 262.356 104.103 254.89 82.6201 242.511C72.0753 236.42 63.6265 229.608 57.2734 222.338V163.196C63.6265 170.466 72.1408 177.278 82.6201 183.369C104.103 195.747 130.89 203.148 158.726 205.637V205.703Z" fill="#9E9EFD" fill-opacity="0.5"/>
<path opacity="0.4" d="M305.631 158.547V204.001C298.951 213.039 289.192 221.553 276.42 228.889C269.347 232.949 261.684 236.552 253.562 239.499V194.045C261.618 191.033 269.281 187.496 276.42 183.435C289.192 176.034 298.951 167.585 305.631 158.547Z" fill="#9E9EFD" fill-opacity="0.5"/>
<path opacity="0.4" d="M88.7105 192.997C85.6322 191.491 82.6849 189.919 79.8031 188.281C73.5156 184.614 67.8175 180.684 62.8398 176.492V220.243C68.7999 226.662 76.3974 232.491 85.4357 237.73C86.5491 238.385 87.597 238.975 88.7759 239.564V192.997H88.7105Z" fill="#9E9EFD" fill-opacity="0.5"/>
<path opacity="0.4" d="M92.3787 12.8195V55.5878C84.9778 58.5351 77.9698 61.9409 71.4203 65.7396C55.112 75.1054 43.3228 86.1086 35.9219 97.7668V54.9329C43.3228 43.2092 55.1775 32.2715 71.4203 22.8402C77.9698 19.0415 85.0433 15.7013 92.3787 12.6885V12.8195Z" fill="#9E9EFD" fill-opacity="0.5"/>
<path opacity="0.4" d="M327.048 62.0065V104.84C320.302 90.4969 307.137 77.0049 287.685 65.7397C283.035 63.0544 278.254 60.6311 273.211 58.3388V15.5049C278.254 17.7972 283.101 20.2205 287.685 22.9058C307.203 34.171 320.302 47.663 327.048 62.0065Z" fill="#9E9EFD" fill-opacity="0.5"/>
</g>
<defs>
<linearGradient id="paint0_linear_6657_4640" x1="81.6365" y1="323.333" x2="247.667" y2="317.831" gradientUnits="userSpaceOnUse">
<stop stop-color="#6466F0"/>
<stop offset="0.4" stop-color="#4545C5"/>
<stop offset="1" stop-color="#6466F0"/>
</linearGradient>
<linearGradient id="paint1_linear_6657_4640" x1="56.9448" y1="317.111" x2="332.418" y2="331.716" gradientUnits="userSpaceOnUse">
<stop stop-color="#4545C5"/>
<stop offset="0.4" stop-color="#6466F0"/>
<stop offset="1" stop-color="#4545C5"/>
</linearGradient>
<linearGradient id="paint2_linear_6657_4640" x1="171.889" y1="334.926" x2="182.499" y2="186.448" gradientUnits="userSpaceOnUse">
<stop stop-color="#6466F0"/>
<stop offset="1" stop-color="#4545C5"/>
</linearGradient>
<radialGradient id="paint3_radial_6657_4640" cx="0" cy="0" r="1" gradientUnits="userSpaceOnUse" gradientTransform="translate(104.43 192.735) scale(75.4505 75.4504)">
<stop stop-color="white"/>
<stop offset="0.5" stop-color="#DAD9F1"/>
<stop offset="1" stop-color="#C9C9F1"/>
</radialGradient>
<radialGradient id="paint4_radial_6657_4640" cx="0" cy="0" r="1" gradientUnits="userSpaceOnUse" gradientTransform="translate(135.88 104.539) scale(31.3591 31.3591)">
<stop stop-color="#9049FF"/>
<stop offset="1" stop-color="#372468"/>
</radialGradient>
<radialGradient id="paint5_radial_6657_4640" cx="0" cy="0" r="1" gradientUnits="userSpaceOnUse" gradientTransform="translate(132.854 143.024) scale(34.0575 34.0575)">
<stop stop-color="white"/>
<stop offset="0.5" stop-color="#DAD9F1"/>
<stop offset="1" stop-color="#C9C9F1"/>
</radialGradient>
<radialGradient id="paint6_radial_6657_4640" cx="0" cy="0" r="1" gradientUnits="userSpaceOnUse" gradientTransform="translate(171.916 135.001) scale(91.3265 91.2348)">
<stop stop-color="#9049FF"/>
<stop offset="1" stop-color="#372468"/>
</radialGradient>
<linearGradient id="paint7_linear_6657_4640" x1="143.857" y1="142.304" x2="161.213" y2="139.226" gradientUnits="userSpaceOnUse">
<stop stop-color="#6466F0"/>
<stop offset="1" stop-color="#4545C5"/>
</linearGradient>
<radialGradient id="paint8_radial_6657_4640" cx="0" cy="0" r="1" gradientUnits="userSpaceOnUse" gradientTransform="translate(137.243 191.163) scale(154.438 154.438)">
<stop stop-color="white"/>
<stop offset="0.5" stop-color="#DAD9F1"/>
<stop offset="1" stop-color="#C9C9F1"/>
</radialGradient>
<radialGradient id="paint9_radial_6657_4640" cx="0" cy="0" r="1" gradientUnits="userSpaceOnUse" gradientTransform="translate(84.5842 143.221) scale(88.0256 88.0256)">
<stop stop-color="white"/>
<stop offset="0.5" stop-color="#DAD9F1"/>
<stop offset="1" stop-color="#C9C9F1"/>
</radialGradient>
<linearGradient id="paint10_linear_6657_4640" x1="207.977" y1="170.401" x2="218.259" y2="147.609" gradientUnits="userSpaceOnUse">
<stop stop-color="#6466F0"/>
<stop offset="1" stop-color="#4545C5"/>
</linearGradient>
<linearGradient id="paint11_linear_6657_4640" x1="218.064" y1="195.355" x2="294.562" y2="202.625" gradientUnits="userSpaceOnUse">
<stop stop-color="#E4E2EE"/>
<stop offset="0.5" stop-color="#B8B4E7"/>
<stop offset="1" stop-color="#8E9CDF"/>
</linearGradient>
<radialGradient id="paint12_radial_6657_4640" cx="0" cy="0" r="1" gradientUnits="userSpaceOnUse" gradientTransform="translate(222.517 208.257) scale(72.4377 72.4377)">
<stop stop-color="white"/>
<stop offset="0.5" stop-color="#DAD9F1"/>
<stop offset="1" stop-color="#C9C9F1"/>
</radialGradient>
<radialGradient id="paint13_radial_6657_4640" cx="0" cy="0" r="1" gradientUnits="userSpaceOnUse" gradientTransform="translate(214.396 136.043) scale(31.3591 31.3591)">
<stop stop-color="#9049FF"/>
<stop offset="1" stop-color="#372468"/>
</radialGradient>
<radialGradient id="paint14_radial_6657_4640" cx="0" cy="0" r="1" gradientUnits="userSpaceOnUse" gradientTransform="translate(209.877 165.817) scale(38.5767 38.5767)">
<stop stop-color="white"/>
<stop offset="0.5" stop-color="#DAD9F1"/>
<stop offset="1" stop-color="#C9C9F1"/>
</radialGradient>
<radialGradient id="paint15_radial_6657_4640" cx="0" cy="0" r="1" gradientUnits="userSpaceOnUse" gradientTransform="translate(166.787 43.4583) scale(102.972 102.88)">
<stop stop-color="#9049FF"/>
<stop offset="1" stop-color="#372468"/>
</radialGradient>
<linearGradient id="paint16_linear_6657_4640" x1="142.547" y1="132.021" x2="233.258" y2="35.8084" gradientUnits="userSpaceOnUse">
<stop stop-color="white"/>
<stop offset="0.5" stop-color="#DAD9F1"/>
<stop offset="1" stop-color="#C9C9F1"/>
</linearGradient>
<linearGradient id="paint17_linear_6657_4640" x1="164.029" y1="117.743" x2="168.09" y2="103.269" gradientUnits="userSpaceOnUse">
<stop stop-color="#6466F0"/>
<stop offset="1" stop-color="#C5C9FF"/>
</linearGradient>
<linearGradient id="paint18_linear_6657_4640" x1="144.512" y1="106.543" x2="144.774" y2="96.7847" gradientUnits="userSpaceOnUse">
<stop stop-color="#6466F0"/>
<stop offset="1" stop-color="#C5C9FF"/>
</linearGradient>
<radialGradient id="paint19_radial_6657_4640" cx="0" cy="0" r="1" gradientUnits="userSpaceOnUse" gradientTransform="translate(166.787 43.4583) scale(102.972 102.88)">
<stop stop-color="#9049FF"/>
<stop offset="1" stop-color="#372468"/>
</radialGradient>
<linearGradient id="paint20_linear_6657_4640" x1="130.562" y1="88.7941" x2="268.036" y2="88.7941" gradientUnits="userSpaceOnUse">
<stop stop-color="white"/>
<stop offset="0.5" stop-color="#DAD9F1"/>
<stop offset="1" stop-color="#C9C9F1"/>
</linearGradient>
<linearGradient id="paint21_linear_6657_4640" x1="174.247" y1="82.2447" x2="165.864" y2="121.476" gradientUnits="userSpaceOnUse">
<stop stop-color="#170835"/>
<stop offset="1" stop-color="#4545C5"/>
</linearGradient>
<linearGradient id="paint22_linear_6657_4640" x1="161.803" y1="120.036" x2="169.596" y2="100.387" gradientUnits="userSpaceOnUse">
<stop stop-color="#6466F0"/>
<stop offset="1" stop-color="#C5C9FF"/>
</linearGradient>
<linearGradient id="paint23_linear_6657_4640" x1="139.208" y1="110.997" x2="147.002" y2="91.3486" gradientUnits="userSpaceOnUse">
<stop stop-color="#6466F0"/>
<stop offset="1" stop-color="#C5C9FF"/>
</linearGradient>
<clipPath id="clip0_6657_4640">
<rect width="354.984" height="381.182" fill="white" transform="translate(0.488281 0.506836)"/>
</clipPath>
</defs>
</svg>
