<svg width="186" height="40" viewBox="0 0 186 40" fill="none" xmlns="http://www.w3.org/2000/svg">
<g id="Fynd Academy Logo" clip-path="url(#clip0_6763_923)">
<path id="Vector" d="M47.6936 15.5667L40.0305 9.92433L28.1885 1.05757C26.2975 -0.353173 23.8094 -0.353173 21.919 1.05757L10.1759 9.82331C10.1759 9.82331 10.0764 9.82331 10.0764 9.92375L2.01527 15.969C-0.671758 17.9841 -0.671758 22.0143 2.01527 24.0294L2.41327 24.3319L4.00582 25.5412L4.30431 25.7426L21.919 38.9415C23.81 40.3522 26.2981 40.3522 28.1885 38.9415L30.7761 37.0274H30.8755L47.6942 24.4329C50.5803 22.0149 50.4808 17.6822 47.6942 15.5661L47.6936 15.5667Z" fill="url(#paint0_linear_6763_923)"/>
<g id="Clip path group">
<mask id="mask0_6763_923" style="mask-type:luminance" maskUnits="userSpaceOnUse" x="9" y="8" width="31" height="22">
<g id="clippath">
<path id="Vector_2" d="M39.8567 8H9.96387V29.0003H39.8567V8Z" fill="white"/>
</g>
</mask>
<g mask="url(#mask0_6763_923)">
<g id="Group">
<path id="Vector_3" d="M39.8567 19.8247C39.903 19.0177 39.2221 18.5393 39.2221 18.5393L25.8824 8.34369C24.6323 7.57039 23.845 8.34369 23.845 8.34369L10.5562 18.6845C10.0842 19.1048 9.94996 19.5541 9.96385 19.9454V23.3277C9.9731 23.9948 10.4174 24.5167 10.4174 24.5167C10.4174 24.5167 14.3071 27.4642 15.696 28.5271C16.8072 29.5419 17.9185 28.479 17.9185 28.479L23.7525 23.9367C24.91 23.1152 25.7899 23.9367 25.7899 23.9367L31.4387 28.382C32.9202 29.4932 34.0314 28.479 34.0314 28.479L39.2175 24.5167C39.6803 24.0192 39.8428 23.5791 39.8521 23.207V19.8247H39.8567Z" fill="#3721A6"/>
<path id="Vector_4" d="M10.5569 18.684L23.8457 8.3432C23.8457 8.3432 24.633 7.5699 25.8831 8.3432L39.2182 18.5388C39.2182 18.5388 40.6534 19.5536 39.2182 21.0997L34.0321 25.0619C34.0321 25.0619 32.9209 26.0767 31.4394 24.9655L25.7906 20.5203C25.7906 20.5203 24.9107 19.6988 23.7532 20.5203L17.9192 25.0625C17.9192 25.0625 16.8079 26.1255 15.6967 25.1107C14.3078 24.0477 10.4181 21.1002 10.4181 21.1002C10.4181 21.1002 9.30682 19.7957 10.5569 18.684Z" fill="white" fill-opacity="0.9"/>
</g>
</g>
</g>
<path id="Union" fill-rule="evenodd" clip-rule="evenodd" d="M66.308 8.54639V11.2895H62.3599V16.7757H66.308V19.5188H62.3599V27.138H59.2217V8.54639H66.308ZM95.2592 8.54639V12.6102C95.2087 12.6102 95.1583 12.5849 95.1078 12.5596C95.0572 12.5341 95.0065 12.5087 94.9555 12.5087C94.5506 12.4071 94.0444 12.3055 93.4376 12.3055C92.2228 12.3055 91.3111 12.6102 90.603 13.3214C89.8944 14.0326 89.5907 14.947 89.5907 16.0645V23.4805C89.5907 24.6997 89.8944 25.614 90.603 26.3252C91.3111 27.0364 92.2228 27.138 93.3358 27.138H98.195V8.54639H95.2592ZM95.2592 16.0639V23.6831C95.2592 24.0895 95.158 24.2927 94.9555 24.4959C94.6524 24.6991 94.3487 24.8007 94.0444 24.8007C93.6395 24.8007 93.3358 24.6991 93.0326 24.4959C92.8296 24.2927 92.7289 24.0895 92.7289 23.6831V16.0639C92.7289 15.6576 92.8302 15.4544 93.0326 15.2512C93.3358 15.048 93.6395 14.9464 94.0444 14.9464C94.4493 14.9464 94.753 15.048 94.9555 15.2512C95.158 15.3528 95.2592 15.6576 95.2592 16.0639ZM111.657 26.8493L111.139 24.0606C111.139 23.9721 111.085 23.9281 110.975 23.9281H106.998C106.889 23.9281 106.835 23.9726 106.835 24.0606L106.317 26.8493C106.298 27.0444 106.181 27.1415 105.963 27.1415H103.484C103.229 27.1415 103.13 27.0264 103.184 26.7963L107.216 8.84198C107.252 8.64739 107.37 8.5498 107.57 8.5498H110.457C110.657 8.5498 110.775 8.64739 110.811 8.84198L114.842 26.7963V26.9023C114.842 27.0619 114.742 27.1415 114.543 27.1415H112.01C111.791 27.1415 111.673 27.0444 111.656 26.8493H111.657ZM107.462 21.5106H110.486C110.595 21.5106 110.64 21.4666 110.622 21.378L109.042 12.9849C109.023 12.9319 108.996 12.9054 108.96 12.9054C108.925 12.9054 108.897 12.9319 108.879 12.9849L107.326 21.378C107.308 21.4666 107.353 21.5106 107.462 21.5106ZM117.227 26.0999C116.364 25.2621 115.933 24.1295 115.933 22.7019V16.9335C115.933 15.5443 116.364 14.4256 117.227 13.578C118.089 12.7309 119.265 12.3071 120.754 12.3071C122.244 12.3071 123.424 12.7211 124.295 13.5495C125.166 14.378 125.603 15.4299 125.603 16.7048V17.1048C125.603 17.2006 125.571 17.2813 125.507 17.3475C125.444 17.4142 125.366 17.4473 125.276 17.4473L122.892 17.5617C122.674 17.5617 122.566 17.4473 122.566 17.2192V16.9335C122.566 16.4581 122.419 15.9228 122.102 15.5704C121.784 15.2186 121.333 15.106 120.843 15.106C120.353 15.106 119.742 15.3539 119.434 15.7347C119.125 16.1155 118.971 16.6015 118.971 17.1913V22.4743C118.971 23.0647 119.125 23.5501 119.434 23.9309C119.742 24.3118 120.257 24.5602 120.748 24.5602C121.239 24.5602 121.768 24.4285 122.086 24.0755C122.404 23.7237 122.566 23.1983 122.566 22.7031V22.4174C122.566 22.3222 122.597 22.2415 122.662 22.1748C122.725 22.108 122.802 22.0749 122.893 22.0749L125.276 22.1034C125.367 22.1034 125.444 22.137 125.508 22.2032C125.571 22.27 125.603 22.3507 125.603 22.4459V22.9597C125.603 24.2735 125.168 25.3347 124.296 26.1434C123.424 26.9527 122.243 27.3573 120.755 27.3573C119.267 27.3573 118.09 26.9388 117.227 26.101L117.227 26.0999ZM136.523 17.0764C136.523 15.6482 136.078 14.497 135.188 13.6209C134.298 12.7454 133.258 12.3071 131.824 12.3071C130.498 12.3071 129.395 12.6978 128.515 13.4781C127.634 14.2584 127.148 15.6441 127.058 16.9388C127.039 17.1669 127.139 17.2813 127.357 17.2813H129.999C130.217 17.2813 130.335 17.1675 130.353 16.9388C130.408 16.501 130.561 15.8055 130.816 15.5483C131.07 15.2912 131.388 15.1629 131.769 15.1629C132.26 15.1629 132.668 15.3678 132.995 15.7771C133.322 16.1864 133.486 16.7338 133.486 17.4189V18.1614C133.486 18.2566 133.44 18.3042 133.35 18.3042H131.933C131.283 18.3042 130.629 18.3774 130.004 18.562C128.004 19.1524 126.826 20.9951 126.826 23.0531C126.826 23.1396 126.828 23.2267 126.834 23.3138C126.891 24.317 127.148 25.4131 127.838 26.1753C128.522 26.9306 129.54 27.3562 130.544 27.3562C131.761 27.3562 132.687 26.9661 133.322 26.1852C133.358 26.1283 133.395 26.1097 133.431 26.1283C133.467 26.1475 133.486 26.1858 133.486 26.2427V26.7855C133.486 26.8807 133.517 26.9614 133.581 27.0282C133.644 27.0949 133.721 27.128 133.812 27.128H136.196C136.287 27.128 136.364 27.0944 136.427 27.0282C136.491 26.962 136.523 26.8807 136.523 26.7855V17.0764ZM133.486 22.5591C133.486 23.2064 133.277 23.7115 132.859 24.0726V24.072C132.441 24.4343 131.96 24.6148 131.415 24.6148C130.961 24.6148 130.589 24.4679 130.298 24.1724C130.008 23.8775 129.863 23.4351 129.863 22.8447C129.863 22.1782 130.053 21.6691 130.435 21.3167C130.816 20.9649 131.315 20.7884 131.933 20.7884H133.35C133.44 20.7884 133.486 20.836 133.486 20.9312V22.5591ZM157.879 20.9456C157.815 21.0124 157.738 21.0455 157.647 21.0455H151.723C151.632 21.0455 151.587 21.0931 151.587 21.1883V22.4731C151.587 23.0635 151.741 23.5488 152.05 23.9297C152.358 24.3105 152.758 24.5009 153.248 24.5009C153.666 24.5009 154.024 24.3633 154.324 24.087C154.624 23.8112 154.819 23.4542 154.91 23.0165C154.964 22.8266 155.082 22.7308 155.264 22.7308L157.668 22.8452C157.759 22.8452 157.836 22.8789 157.9 22.9451C157.963 23.0118 157.986 23.1024 157.968 23.2162C157.841 24.5491 157.397 25.5721 156.598 26.2861C155.799 27.0002 154.682 27.3573 153.248 27.3573C151.813 27.3573 150.583 26.9433 149.72 26.1149C148.857 25.287 148.549 24.159 148.549 22.7308V16.934C148.549 15.5448 148.857 14.426 149.72 13.5784C150.583 12.7314 151.758 12.3076 153.248 12.3076C154.737 12.3076 155.912 12.7314 156.775 13.5784C157.638 14.426 157.974 15.5442 157.974 16.934V20.7036C157.974 20.7988 157.942 20.8795 157.878 20.9462L157.879 20.9456ZM152.05 15.734C151.741 16.1149 151.587 16.6008 151.587 17.1906V18.4754C151.587 18.5706 151.632 18.6182 151.723 18.6182H154.801C154.892 18.6182 154.937 18.5706 154.937 18.4754V17.1906C154.937 16.5816 154.782 16.0911 154.474 15.7201C154.165 15.3485 153.757 15.1634 153.248 15.1634C152.74 15.1634 152.358 15.3538 152.05 15.7346V15.734ZM175.345 17.219C175.345 15.677 175.041 14.4736 174.433 13.6068V13.6074C173.825 12.7412 172.93 12.3081 171.75 12.3081C171.187 12.3081 170.628 12.4416 170.075 12.7081C169.521 12.9752 169.063 13.4129 168.699 14.0219C168.59 14.1554 168.508 14.1839 168.454 14.1078C167.818 12.9084 166.828 12.3087 165.485 12.3087C165.049 12.3087 164.604 12.3946 164.15 12.5659C163.696 12.7371 163.288 13.0129 162.924 13.3937C162.888 13.4506 162.851 13.4698 162.816 13.4506C162.779 13.4315 162.761 13.3932 162.761 13.3363V12.8794C162.761 12.7842 162.729 12.7035 162.666 12.6367C162.602 12.5705 162.525 12.5368 162.434 12.5368H160.047C159.956 12.5368 159.879 12.5699 159.816 12.6367C159.751 12.7035 159.72 12.7842 159.72 12.8794V26.7865C159.72 26.8817 159.752 26.9624 159.816 27.0291C159.879 27.0959 159.956 27.129 160.047 27.129H162.434C162.525 27.129 162.602 27.0959 162.666 27.0291C162.729 26.963 162.761 26.8817 162.761 26.7865V17.4199C162.761 16.7157 162.906 16.1635 163.197 15.7635C163.487 15.3635 163.887 15.1638 164.395 15.1638C164.849 15.1638 165.217 15.3635 165.499 15.7635C165.78 16.1635 165.921 16.7249 165.921 17.4483V26.7859C165.921 26.8811 165.953 26.9618 166.016 27.0286C166.079 27.0953 166.157 27.1284 166.248 27.1284H168.647C168.737 27.1284 168.815 27.0953 168.879 27.0286C168.942 26.9624 168.974 26.8811 168.974 26.7859V17.4193C168.974 16.7151 169.119 16.163 169.41 15.763C169.7 15.363 170.179 15.1633 170.687 15.1633C171.159 15.1633 171.627 15.363 171.9 15.763C172.172 16.163 172.308 16.7244 172.308 17.4477V26.7853C172.308 26.8805 172.34 26.9612 172.404 27.028C172.467 27.0948 172.544 27.1278 172.635 27.1278H175.019C175.109 27.1278 175.186 27.0942 175.25 27.028C175.314 26.9618 175.345 26.8805 175.345 26.7853V17.219ZM143.882 12.6102V8.54639H146.818V27.138H141.959C140.846 27.138 139.934 27.0364 139.226 26.3252C138.517 25.614 138.214 24.6997 138.214 23.4805V16.0645C138.214 14.947 138.517 14.0326 139.226 13.3214C139.934 12.6102 140.846 12.3055 142.06 12.3055C142.667 12.3055 143.173 12.4071 143.578 12.5087C143.629 12.5087 143.68 12.5341 143.731 12.5596C143.781 12.5849 143.831 12.6102 143.882 12.6102ZM143.882 23.6831V16.0639C143.882 15.6576 143.781 15.3528 143.578 15.2512C143.376 15.048 143.072 14.9464 142.667 14.9464C142.262 14.9464 141.959 15.048 141.655 15.2512C141.453 15.4544 141.352 15.6576 141.352 16.0639V23.6831C141.352 24.0895 141.452 24.2927 141.655 24.4959C141.959 24.6991 142.262 24.8007 142.667 24.8007C142.971 24.8007 143.275 24.6991 143.578 24.4959C143.781 24.2927 143.882 24.0895 143.882 23.6831ZM73.5963 23.5827C73.5963 23.9891 73.4951 24.1923 73.2926 24.3955C72.9895 24.5987 72.6858 24.5987 72.3815 24.5987C71.9766 24.5987 71.6729 24.5987 71.3698 24.3955C71.1667 24.1923 71.0661 23.9891 71.0661 23.5827V12.5093H68.0291V23.6843C68.0291 24.3955 68.1309 24.9035 68.3328 25.4115C69.3539 27.1817 71.6517 27.1576 73.1974 27.1415C73.3372 27.14 73.4709 27.1386 73.5969 27.1386C73.7994 31.6088 68.7377 31.4056 68.7377 31.4056L68.6365 34.4535C68.6365 34.4535 76.6339 34.6567 76.6339 27.1392V12.5099H73.5969V23.5833L73.5963 23.5827ZM182.33 24.3955C182.533 24.1923 182.634 23.9891 182.634 23.5827L182.635 23.5833V12.5099H185.672V27.1392C185.672 34.6567 177.674 34.4535 177.674 34.4535L177.776 31.4056C177.776 31.4056 182.837 31.6088 182.635 27.1386C182.509 27.1386 182.375 27.14 182.235 27.1415C180.69 27.1576 178.392 27.1817 177.371 25.4115C177.169 24.9035 177.067 24.3955 177.067 23.6843V12.5093H180.104V23.5827C180.104 23.9891 180.205 24.1923 180.408 24.3955C180.711 24.5987 181.014 24.5987 181.419 24.5987C181.724 24.5987 182.027 24.5987 182.33 24.3955ZM86.5536 13.3221C86.5536 13.3221 85.44 12.4077 83.6178 12.4077H78.658V27.037H81.6944V16.0652C81.6944 15.6588 81.7956 15.4556 82.0993 15.2524C82.403 15.0492 82.808 14.9476 83.2129 14.9476C83.6178 14.9476 84.0228 15.0492 84.3265 15.2524C84.6296 15.4556 84.7314 15.6588 84.7314 16.0652V27.1386H87.7678V15.9636C87.7678 14.846 87.3629 14.0333 86.553 13.3221H86.5536Z" fill="#3721A6"/>
</g>
<defs>
<linearGradient id="paint0_linear_6763_923" x1="24.9103" y1="42.9995" x2="24.9103" y2="-3.50034" gradientUnits="userSpaceOnUse">
<stop stop-color="#362AB5"/>
<stop offset="0.19" stop-color="#3021D1"/>
<stop offset="0.47" stop-color="#5C3BFF"/>
<stop offset="0.83" stop-color="#8243FF"/>
<stop offset="1" stop-color="#884DFF"/>
</linearGradient>
<clipPath id="clip0_6763_923">
<rect width="186" height="40" fill="white"/>
</clipPath>
</defs>
</svg>
