<svg width="248" height="236" viewBox="0 0 248 236" fill="none" xmlns="http://www.w3.org/2000/svg">
<path d="M150.29 66.9799L164.24 22.3899L166.78 68.1299L195.4 30.5299L184.05 71.9199L233.96 45.7999L193.23 83.6199L244.68 88.4799L191.31 97.4599C191.31 97.4599 240.56 127.31 238.36 126.63C236.17 125.94 185.56 109.34 185.56 109.34L206.23 144.67L171.76 117.38L150.29 66.9699V66.9799Z" fill="#FFCD00"/>
<path d="M87.3201 185.62C87.8701 185.73 92.9801 186.7 97.0901 183.02C101.49 179.09 100.76 173.42 100.7 172.99L92.5901 145.14" stroke="#28226A" stroke-width="5" stroke-miterlimit="10"/>
<path d="M98.8199 206.88L83.9799 212.23C82.1399 212.89 80.1099 211.94 79.4499 210.1L68.1299 178.7C65.7099 171.98 61.4699 166.06 55.8999 161.59L86.4899 150.05C86.0999 157 87.1199 163.96 89.4799 170.51L100.96 202.35C101.62 204.19 100.67 206.22 98.8299 206.88H98.8199Z" fill="#28226A"/>
<g style="mix-blend-mode:multiply" opacity="0.5">
<path d="M68.1299 178.7C65.7099 171.98 61.4699 166.06 55.8999 161.59L86.4899 150.05C86.0999 157 86.8899 160.3 86.8899 160.3" fill="#3A3A3A"/>
</g>
<path d="M31.6085 125.242L45.3985 120.891L57.322 158.685L43.5321 163.035C38.449 164.639 33.0073 161.815 31.4007 156.723L25.293 137.364C23.6893 132.281 26.5129 126.839 31.6055 125.232L31.6085 125.242Z" stroke="#28226A" stroke-width="5" stroke-miterlimit="10"/>
<path d="M71.04 106.24C80 104 99.98 97.7199 118.19 79.8099C135.86 62.4299 142.54 43.2599 145.04 34.3799C158.32 72.3599 171.61 110.34 184.89 148.32C175.79 144.53 160.03 139.35 139.94 139.62C115.68 139.94 97.45 148.04 88.31 152.89C82.55 137.34 76.79 121.8 71.04 106.25V106.24Z" fill="url(#paint0_linear_489_457)"/>
<g style="mix-blend-mode:multiply" opacity="0.2">
<path d="M165.48 92.79C171.95 111.3 178.43 129.8 184.9 148.31C175.8 144.52 160.04 139.34 139.95 139.61C136.15 139.66 132.49 139.9 129 140.29C110.2 142.39 96.0199 148.79 88.3199 152.88C85.4899 145.23 79.7299 134.94 76.8899 127.29L165.48 92.79Z" fill="#28226A"/>
</g>
<g style="mix-blend-mode:multiply" opacity="0.25">
<path d="M94.8899 150.29C100.18 146.98 106.02 144.66 112.14 143.44L112.89 143.29C108.21 142.51 103.86 140.57 100.2 137.7C97.1299 135.3 94.6899 132.18 92.8499 128.74L80.8899 106.29L94.8899 150.29Z" fill="#3A3A3A"/>
</g>
<path d="M93.32 156.77L58.67 168.84C54.41 170.32 49.75 168.07 48.27 163.81L33.43 121.22C31.95 116.96 34.2 112.3 38.46 110.82L73.11 98.75C77.37 97.27 82.03 99.52 83.51 103.78L98.34 146.37C99.82 150.63 97.57 155.29 93.31 156.77H93.32Z" fill="#28226A"/>
<g style="mix-blend-mode:multiply" opacity="0.5">
<path d="M65.5099 147.27C73.0044 147.27 79.0799 141.194 79.0799 133.7C79.0799 126.205 73.0044 120.13 65.5099 120.13C58.0154 120.13 51.9399 126.205 51.9399 133.7C51.9399 141.194 58.0154 147.27 65.5099 147.27Z" stroke="#3A3A3A" stroke-miterlimit="10"/>
</g>
<g style="mix-blend-mode:multiply" opacity="0.26">
<path d="M174.89 144.29L144.26 38.1C143.94 36.99 144.56 35.83 145.66 35.49L149.41 34.3L184.89 148.29L174.89 144.29Z" fill="#3A3A3A"/>
</g>
<path d="M146.54 34.21L184.9 148.31" stroke="#28226A" stroke-width="5" stroke-miterlimit="10" stroke-linecap="round"/>
<g style="mix-blend-mode:multiply" opacity="0.1">
<path d="M176.2 121L153.2 57L156.2 49L182.2 125L176.2 121Z" fill="#28226A"/>
</g>
<path d="M199.86 173.89C201.08 181.23 208.02 186.19 215.36 184.96C208.02 186.18 203.06 193.12 204.29 200.46C203.07 193.12 196.13 188.16 188.79 189.39C196.13 188.17 201.09 181.23 199.86 173.89Z" fill="white"/>
<path d="M54.3 22.52C56.79 37.47 70.93 47.57 85.88 45.08C70.93 47.57 60.83 61.71 63.32 76.66C60.83 61.71 46.69 51.61 31.74 54.1C46.69 51.61 56.79 37.47 54.3 22.52Z" fill="white"/>
<path d="M87.9601 11.6599C89.0801 18.3899 95.4401 22.9299 102.17 21.8099C95.4401 22.9299 90.9001 29.2899 92.0201 36.0199C90.9001 29.2899 84.5401 24.7499 77.8101 25.8699C84.5401 24.7499 89.0801 18.3899 87.9601 11.6599Z" fill="white"/>
<defs>
<linearGradient id="paint0_linear_489_457" x1="179.73" y1="85.4499" x2="5.66004" y2="154.89" gradientUnits="userSpaceOnUse">
<stop offset="0.1" stop-color="#874DFD"/>
<stop offset="0.3" stop-color="#8143FD"/>
<stop offset="0.53" stop-color="#5C3BFD"/>
<stop offset="0.81" stop-color="#3021CF"/>
<stop offset="1" stop-color="#362AB3"/>
</linearGradient>
</defs>
</svg>
